<?xml version="1.0" encoding="utf-8"?>
<!-- Generator: Adobe Illustrator 17.0.0, SVG Export Plug-In . SVG Version: 6.00 Build 0)  -->
<!DOCTYPE svg PUBLIC "-//W3C//DTD SVG 1.1//EN" "http://www.w3.org/Graphics/SVG/1.1/DTD/svg11.dtd">
<svg version="1.1" id="Calque_1" xmlns="http://www.w3.org/2000/svg" xmlns:xlink="http://www.w3.org/1999/xlink" x="0px" y="0px"
	 width="841.89px" height="1190.55px" viewBox="0 0 841.89 1190.55" enable-background="new 0 0 841.89 1190.55"
	 xml:space="preserve">
<g id="obligation1" display="none">
	<g display="inline">
		<path fill="#FF7900" d="M731.322,597.52c-0.561,170.623-138.631,308.132-309.254,307.57
			c-170.062-0.561-308.132-139.754-307.57-309.815c0.561-169.501,140.876-308.132,310.377-307.009
			C594.374,288.827,731.883,428.02,731.322,597.52z M689.789,597.52c0-147.05-119.548-267.721-266.037-267.721
			S156.03,449.347,155.469,595.836c-0.561,147.611,119.548,268.282,267.16,268.282S689.789,744.57,689.789,597.52z"/>
		<path fill="#1C1A44" d="M424.874,724.926c-5.051,0.561-10.664,0-14.593-1.684c-38.166-15.154-77.454-21.889-117.303-23.573
			c-3.929,0-7.296-1.122-11.786-1.684c0-66.229,0-132.457,0-199.809c42.656,1.123,84.75,5.051,123.477,23.012
			c6.174,2.806,11.786,5.051,17.399,5.051 M307.57,670.484c34.237,6.735,67.351,13.47,101.027,20.205
			c0.561-1.122,1.122-2.245,1.122-3.368c0-42.094,0.561-84.189,0-125.722c0-3.929-2.806-9.541-6.174-11.225
			c-29.747-16.277-62.3-21.328-96.537-24.134C307.57,575.07,307.57,622.777,307.57,670.484z"/>
		<path fill="#1C1A44" d="M421.506,526.24c5.613-0.561,12.909-2.245,19.083-5.051c38.727-18.522,80.26-21.889,123.477-23.012
			c0,67.351,0,133.58,0,199.809c-4.49,0.561-8.419,1.684-11.786,1.684c-40.411,2.245-79.699,8.98-117.303,23.573
			c-4.49,1.684-9.541,2.245-14.593,1.684 M537.687,525.679c-34.237,3.368-66.79,7.858-96.537,24.695
			c-3.368,1.684-6.174,7.296-6.174,11.225c-0.561,42.094,0,84.189,0,125.722c0,1.122,1.122,2.806,1.122,3.368
			c33.676-6.735,67.351-13.47,101.027-20.205C537.687,622.777,537.687,575.07,537.687,525.679z"/>
		<g>
			<path fill="#FF7900" d="M493.909,561.038L493.909,561.038c2.806-4.49,5.613-8.419,9.541-11.786
				c4.49-4.49,9.541-8.98,14.593-12.909c5.051-4.49,10.664-9.541,15.154-15.154c3.929-5.051,7.858-10.103,9.541-16.277
				c2.245-5.613,2.806-11.786,1.684-17.96c-2.245-14.031-15.715-24.134-30.308-21.889c-8.98,1.684-15.154,6.174-19.644,14.031
				c-0.561,0.561-0.561,1.123-1.122,1.684v-0.561c-5.051-11.225-16.838-17.399-29.186-15.154
				c-10.103,1.684-16.838,7.858-20.767,17.96c-1.684,5.051-1.684,10.664-0.561,15.715c1.122,6.174,3.929,11.225,7.296,16.277
				c3.929,5.613,8.419,10.103,13.47,14.593c5.613,5.051,11.225,10.103,16.838,15.154c3.368,3.368,6.735,6.735,9.541,10.103
				C491.664,558.232,492.786,559.354,493.909,561.038z"/>
			<path fill="#FF7900" d="M493.909,561.038c-1.123-1.684-2.245-3.368-3.368-5.051c-2.806-3.929-6.174-7.296-9.541-10.103
				c-5.613-5.051-11.225-10.103-16.838-15.154c-5.051-4.49-9.541-9.541-13.47-14.593c-3.368-5.051-5.613-10.103-7.296-16.277
				c-1.122-5.613-1.122-10.664,0.561-15.715c3.368-9.541,10.103-16.277,20.767-17.96c12.348-2.245,23.573,3.929,29.186,15.154v0.561
				c0.561-0.561,0.561-1.123,1.122-1.684c4.49-7.858,10.664-12.348,19.644-14.031c14.593-2.245,28.063,7.858,30.308,21.889
				c1.122,6.174,0,11.786-1.684,17.96c-2.245,6.174-5.613,11.225-9.541,16.277c-4.49,5.613-10.103,10.103-15.154,15.154
				c-5.051,4.49-9.541,8.419-14.593,12.909C499.521,552.619,496.715,556.548,493.909,561.038L493.909,561.038z"/>
		</g>
	</g>
</g>
<g id="obligation_2" display="none">
	<g display="inline">
		<path fill="#FF7900" d="M729.638,597.52c-0.561,170.623-138.631,308.132-309.254,307.57
			c-170.623-0.561-308.693-139.754-308.132-309.815c0.561-169.501,140.876-308.132,310.377-307.009
			C592.129,288.827,729.638,428.02,729.638,597.52z M688.105,597.52c0-147.05-119.548-267.721-266.037-267.721
			S154.346,449.347,153.785,595.836c-0.561,147.611,119.548,268.282,267.16,268.282C567.995,864.119,688.105,744.57,688.105,597.52z
			"/>
		<path fill="#1C1A44" d="M422.629,579.56c-3.929,0-7.296,0-10.664-1.122c-27.502-10.664-55.565-15.715-84.75-16.838
			c-2.806,0-5.051-0.561-8.419-1.122c0-47.707,0-95.414,0-143.683c30.869,1.123,61.177,3.368,88.679,16.838
			c4.49,2.245,8.419,3.368,12.348,3.929 M337.879,540.271c24.695,5.051,48.83,9.541,72.964,14.593c0-0.561,1.123-1.684,1.123-2.245
			c0-30.308,0.561-60.616,0-90.924c0-2.806-2.245-6.735-4.49-8.419c-21.328-11.786-44.901-15.154-69.596-17.399
			C337.879,471.798,337.879,506.035,337.879,540.271z"/>
		<path fill="#1C1A44" d="M420.384,436.438c3.929-0.561,9.541-1.684,14.032-3.929c28.063-12.909,57.81-15.715,88.679-16.838
			c0,48.268,0,95.975,0,143.683c-3.368,0.561-6.174,1.122-8.419,1.122c-29.185,1.684-57.248,6.174-84.75,16.838
			c-2.806,1.123-6.735,1.684-10.664,1.123 M504.012,435.877c-24.695,2.245-48.268,5.613-69.596,17.399
			c-2.245,1.123-4.49,5.613-4.49,8.419c0,30.308,0,60.616,0,90.924c0,1.122,0.561,1.684,1.122,2.245
			c24.134-5.051,48.268-9.541,72.964-14.593C504.012,506.035,504.012,471.798,504.012,435.877z"/>
		<path fill="#FF7900" d="M300.274,658.697c-3.929-8.419-8.98-15.154-14.593-21.328c-3.929-3.929-8.419-7.296-12.909-11.225
			c-8.419-7.296-12.348-15.715-11.225-26.379c1.123-11.225,14.031-16.277,24.134-8.419c5.051,3.929,9.541,7.858,14.031,11.786
			c6.735,6.174,12.909,12.348,19.083,18.522c8.98,8.98,20.767,14.593,31.431,21.328c8.419,5.051,16.838,10.103,24.695,15.715
			c16.277,11.225,26.379,26.94,30.308,47.146c5.051,24.695,5.051,48.83,1.684,73.525c-0.561,4.49-1.122,8.419-1.684,12.909
			c-0.561,4.49-2.245,5.051-6.174,5.051c-16.838,0-34.237,0-51.075,0c-3.929,0-5.613-1.123-6.174-5.051
			c-0.561-6.174-0.561-12.348-0.561-18.522c-1.123-24.134-12.909-40.411-34.798-50.513c-18.522-8.419-35.921-19.644-51.636-32.553
			c-2.245-1.684-3.929-3.368-5.051-5.613c-8.98-13.47-17.96-26.94-26.379-40.972c-6.174-10.103-12.909-20.205-14.593-31.992
			c-1.123-8.419-2.245-16.838-3.368-24.695c-1.123-11.786-2.806-23.573-1.123-35.359c0.561-3.929,1.684-7.296,2.806-11.225
			c1.684-5.051,5.613-8.419,11.225-8.419c5.613,0,8.419,3.368,10.664,7.858c4.49,9.541,6.735,20.205,5.613,30.308
			c-1.123,17.399,4.49,31.992,14.593,45.462c6.174,8.98,11.786,18.522,19.083,26.94c7.296,8.98,16.838,14.031,28.063,15.715
			C296.345,658.697,298.029,658.136,300.274,658.697z"/>
		<path fill="#FF7900" d="M544.983,658.697c10.664,0,20.205-3.929,27.502-10.664c5.051-4.49,8.98-10.103,13.47-15.154
			c5.051-6.735,9.541-14.031,14.031-20.767c5.613-8.419,10.103-17.399,11.225-27.502c0.561-4.49,0.561-9.541,0.561-14.031
			c0-9.541,1.123-19.083,5.051-28.063c0.561-1.684,1.684-3.929,2.806-5.613c5.051-7.296,14.031-7.858,18.522,0
			c2.245,3.929,3.929,8.98,4.49,14.031c1.684,11.786,0.561,24.134-1.122,35.921c-1.122,8.419-2.245,16.277-3.368,24.695
			c-1.684,11.786-7.858,21.889-14.593,31.431c-8.98,14.031-17.96,28.063-26.94,41.533c-2.245,3.368-6.174,6.735-9.541,8.98
			c-15.154,11.786-31.431,21.328-48.83,29.747c-23.012,10.664-34.798,29.747-33.676,56.687c0,3.929,0,7.858-0.561,11.786
			c-0.561,3.368-2.245,5.051-6.174,5.051c-17.399,0-34.237,0-51.636,0c-3.929,0-5.613-1.122-6.174-5.051
			c-1.684-12.909-3.368-26.379-4.49-39.288c-1.122-20.767,1.684-40.972,7.858-61.177c3.368-10.103,9.541-17.96,16.838-24.695
			c11.225-11.225,24.695-19.083,38.727-25.818c13.47-6.735,25.257-16.277,35.921-26.94c7.296-7.296,14.593-14.031,22.45-20.767
			c3.368-2.806,7.296-4.49,11.786-4.49c8.419,0,13.47,4.49,14.031,12.348c1.122,11.225-3.368,20.205-12.348,26.94
			C561.821,634.002,548.912,649.156,544.983,658.697z"/>
	</g>
</g>
<g id="obligation3" display="none">
	<g display="inline">
		<path fill="#FF7900" d="M729.638,597.52c-0.561,170.623-138.631,308.132-309.254,307.57
			c-170.623-0.561-308.693-139.754-308.132-309.815c0.561-169.501,140.876-308.132,310.377-307.009
			C592.129,288.827,729.638,428.02,729.638,597.52z M688.105,597.52c0-147.05-119.548-267.721-266.037-267.721
			S154.346,449.347,153.785,595.836c-0.561,147.611,119.548,268.282,267.16,268.282C567.995,864.119,688.105,744.57,688.105,597.52z
			"/>
		<g>
			<path fill="#1C1A44" d="M253.69,763.653c1.684,0,3.368,0,4.49,0c63.422,0,126.845,0,190.267,0c2.245,0,3.929,0,6.174,0
				c20.205-0.561,37.043-21.328,33.114-40.972c-3.368-19.083-17.96-30.869-37.043-30.869c-34.237,0-69.035,0-103.272,0
				c-1.123,0-2.245,0-3.929,0c0-1.684,0-2.806,0-3.929c0-34.798,0-69.035,0-103.833c0-31.992-31.431-53.881-61.739-42.656
				c-17.96,6.735-28.624,23.573-28.624,43.778c0,58.371,0,117.303,0,175.674C253.69,761.408,253.69,761.969,253.69,763.653z
				 M371.554,393.221c-39.849,0-71.841,31.992-72.403,71.841s31.992,71.841,71.841,72.403s72.403-31.992,72.403-71.841
				S411.404,393.221,371.554,393.221z M488.857,763.653c1.122,0,1.122,0,1.684,0c28.624,0,57.248,0,86.434,0
				c2.245,0,2.806-1.122,3.368-2.806c14.031-28.624,28.624-56.687,42.656-85.312c0.561-0.561,0.561-1.684,1.122-2.806
				c-22.45-15.154-44.901-29.747-67.912-44.901c-2.806,6.174-6.174,11.786-8.98,17.96c13.47,8.98,26.379,17.399,39.849,26.379
				c0,0,0,0.561-0.561,0.561c-1.122,0-2.245,0-3.368,0c-15.715,0-30.869,0-46.585,0c-2.245,0-3.368,0.561-4.49,2.806
				c-14.031,28.063-28.063,56.126-42.095,84.75C489.98,761.408,489.419,762.531,488.857,763.653z M497.838,582.927
				c0-24.695-20.205-44.901-44.901-44.901c-24.695,0-45.462,20.205-45.462,45.462c0,25.257,20.205,45.462,45.462,44.901
				C477.632,627.828,497.838,607.623,497.838,582.927z M452.376,673.29c1.684-12.909-7.296-29.747-20.205-37.604
				c-15.715-9.541-31.992-10.103-47.707-1.122c-14.593,8.419-21.328,21.889-21.889,38.727
				C392.321,673.29,422.068,673.29,452.376,673.29z"/>
			<path fill="#1C1A44" d="M253.69,763.653c0-1.684,0-2.245,0-3.368c0-58.371,0-117.303,0-175.674
				c0-20.205,11.225-37.043,28.624-43.778c29.747-11.225,61.177,10.664,61.739,42.656c0,34.798,0,69.035,0,103.833
				c0,1.122,0,2.245,0,3.929c1.684,0,2.806,0,3.929,0c34.237,0,69.035,0,103.272,0c19.083,0,33.676,12.348,37.043,30.869
				c3.368,20.205-12.909,40.411-33.114,40.972c-2.245,0-3.929,0-6.174,0c-63.422,0-126.845,0-190.267,0
				C257.057,763.653,255.935,763.653,253.69,763.653z"/>
			<path fill="#1C1A44" d="M371.554,393.221c39.849,0,71.841,32.553,71.841,72.403s-33.114,72.403-72.403,72.403
				c-39.849-0.561-72.403-33.114-71.841-72.403C299.152,425.213,331.705,393.221,371.554,393.221z"/>
			<path fill="#1C1A44" d="M488.857,763.653c0.561-1.122,1.122-2.245,1.122-2.806c14.031-28.063,28.063-56.126,42.095-84.75
				c1.122-2.245,2.245-2.806,4.49-2.806c15.715,0,30.869,0,46.585,0c1.122,0,2.245,0,3.368,0c0,0,0-0.561,0.561-0.561
				c-12.909-8.98-26.379-17.399-39.849-26.379c2.806-6.174,6.174-11.786,8.98-17.96c22.45,15.154,44.901,30.308,67.912,44.901
				c-0.561,1.122-0.561,1.684-1.122,2.806c-14.031,28.624-28.624,56.687-42.656,85.312c-0.561,1.684-1.122,2.806-3.368,2.806
				c-28.624,0-57.248,0-86.434,0C489.98,763.653,489.98,763.653,488.857,763.653z"/>
			<path fill="#1C1A44" d="M497.838,582.927c0,24.695-20.205,44.901-44.901,45.462c-24.695,0-45.462-20.205-45.462-44.901
				c0-24.695,20.205-45.462,45.462-45.462C477.632,538.026,497.838,558.232,497.838,582.927z"/>
			<path fill="#1C1A44" d="M452.376,673.29c-29.747,0-60.055,0-89.802,0c0.561-16.838,7.858-29.747,21.889-38.727
				c15.715-9.541,31.992-8.98,47.707,1.122C445.079,643.543,453.498,660.381,452.376,673.29z"/>
		</g>
		<path fill="#FF7900" d="M489.419,402.763c3.929-3.929,6.735-7.296,10.103-10.664c34.237,26.94,34.237,88.679,0,120.11
			c-3.368-3.929-6.174-7.858-9.541-11.225C517.482,463.379,511.869,431.948,489.419,402.763z"/>
		<path fill="#FF7900" d="M477.632,491.442c-3.368-3.929-6.174-6.735-10.103-10.664c12.909-18.522,15.154-37.043-0.561-57.81
			c3.929-3.368,7.858-6.174,11.225-9.541C500.644,433.632,500.644,468.43,477.632,491.442z"/>
	</g>
</g>
<g id="obligation4" display="none">
	<g display="inline">
		<path fill="#FF7900" d="M726.27,593.03c-0.561,170.623-138.631,308.132-309.254,307.57
			c-170.062-0.561-308.132-139.754-307.57-309.816c0.561-169.501,140.876-308.132,310.377-307.009
			C589.323,284.337,726.832,422.968,726.27,593.03z M685.298,592.469c0-147.05-119.548-267.721-266.037-267.721
			S151.54,444.296,150.979,590.785c-0.561,147.611,119.548,268.282,267.16,268.282C565.189,859.067,684.737,739.519,685.298,592.469
			z"/>
		<path fill="#1C1A44" d="M315.989,758.602c0-1.122,0-2.245,0-3.368c0-52.758,0-106.078,0-158.837
			c0-17.96,10.103-33.114,25.818-39.288c26.94-10.103,55.565,9.541,55.565,38.727c0,31.431,0,62.3,0,93.73c0,1.122,0,2.245,0,3.929
			c1.122,0,2.245,0,3.368,0c31.431,0,62.3,0,93.73,0c17.399,0,30.308,11.225,33.114,28.063c3.368,17.96-11.786,36.482-30.308,37.043
			c-1.684,0-3.929,0-5.613,0c-57.249,0-114.497,0-172.307,0C318.796,758.602,317.673,758.602,315.989,758.602z"/>
		<path fill="#1C1A44" d="M356.961,406.692c35.921,0,65.106,29.186,65.106,65.106s-29.747,65.667-65.667,65.106
			c-36.482-0.561-65.106-29.747-65.106-65.667C291.855,435.877,321.041,406.692,356.961,406.692z"/>
		<path fill="#1C1A44" d="M422.068,659.82c0.561-1.122,0.561-1.684,1.122-2.806c12.909-25.257,25.257-51.075,38.166-76.331
			c1.122-1.684,1.684-2.806,3.929-2.245c14.031,0,28.063,0,42.094,0c1.122,0,2.245,0,2.806,0v-0.561
			c-11.786-7.858-23.573-15.715-35.921-24.134c2.806-5.613,5.613-10.664,8.419-16.277c20.767,13.47,40.972,26.94,61.177,40.972
			c-0.561,1.122-0.561,1.684-1.122,2.245c-12.909,25.818-25.818,51.075-38.727,76.893c-0.561,1.122-1.122,2.245-3.368,2.245
			c-25.818,0-52.197,0-78.015,0C423.19,659.82,423.19,659.82,422.068,659.82z"/>
		<path fill="#FF7900" stroke="#FF7900" stroke-miterlimit="10" d="M470.897,495.932c-3.368,0-6.735,0-10.103-0.561
			c-13.47-2.245-23.573-14.031-23.573-27.502c0-10.103,0-20.767,0-30.869c0-1.684,0-3.368,0.561-4.49
			c2.245-13.47,14.031-23.573,28.063-23.573c19.083,0,38.727,0,57.81,0c1.122,0,2.245,0,3.368,0
			c14.031,1.684,24.695,13.47,24.695,28.063c0,10.103,0,20.205,0,30.308c0,4.49-0.561,8.419-2.806,12.348
			c-5.051,10.103-13.47,15.715-24.695,16.277c-6.735,0.561-14.032,0-20.767,0c-0.561,0-1.123,0-1.123,0.561
			c-7.296,7.296-14.593,14.593-22.45,22.45c-1.684,1.684-3.368,3.368-5.051,5.051c-0.561,0.561-1.122,0.561-1.684,0.561
			c-1.122,0-1.122-1.123-1.122-2.245c0-8.419,0-16.838,0-25.257c0-0.561,0-0.561,0-1.123
			C471.458,495.932,471.458,495.932,470.897,495.932z M476.51,517.26c7.858-7.858,16.277-16.277,24.134-24.134
			c0.561-0.561,1.684-1.123,2.806-1.123c6.735,0,13.47,0,20.767,0c10.103,0,17.96-5.051,22.45-14.031
			c1.684-3.368,2.245-6.735,2.245-10.103c0-10.103,0-20.205,0-30.869c0-12.348-8.98-23.012-21.328-24.134c-1.122,0-2.245,0-3.929,0
			c-19.083,0-38.166,0-57.248,0c-10.664,0-18.522,5.051-23.012,14.593c-1.684,3.368-2.245,6.735-2.245,10.103
			c0,10.103,0,20.205,0,30.308c0,12.348,8.98,23.012,21.328,24.134c3.368,0.561,6.174,0,9.541,0c2.806,0,3.368,0,3.368,3.368
			c0,7.296,0,14.593,0,21.889c0,0.561,0,0.561,0,1.122c0,0,0,0,0.561,0.561C475.948,517.821,475.948,517.26,476.51,517.26z"/>
		<path fill="#FF7900" stroke="#FF7900" stroke-miterlimit="10" d="M495.031,453.837c8.98,0,17.96,0,26.379,0
			c0.561,0,0.561,0,1.122,0c0.561,0,1.122-1.122,1.122-1.684c0-0.561-0.561-1.123-1.684-1.684c-0.561,0-0.561,0-1.123,0
			c-17.399,0-35.359,0-52.758,0h-0.561c-1.122,0-1.684,0.561-1.684,1.684c0,1.122,0.561,1.684,1.684,1.684h0.561
			C477.071,453.837,486.051,453.837,495.031,453.837z"/>
		<path fill="#FF7900" stroke="#FF7900" stroke-miterlimit="10" d="M494.47,432.51c-8.98,0-17.96,0-26.941,0
			c-1.122,0-1.684,0.561-2.245,1.123c0,1.122,0.561,2.245,1.684,2.245c0.561,0,0.561,0,1.122,0c17.399,0,35.359,0,52.758,0
			c0.561,0,0.561,0,1.122,0c1.122,0,1.684-1.123,1.684-1.684c0-1.123-0.561-1.684-1.684-1.684c-4.49,0-8.419,0-12.909,0
			C504.012,432.51,499.521,432.51,494.47,432.51z"/>
		<path fill="#FF7900" stroke="#FF7900" stroke-miterlimit="10" d="M495.031,472.359c8.98,0,17.399,0,26.379,0h0.561
			c1.122,0,1.684-0.561,1.684-1.684c0-1.123-0.561-1.684-1.684-1.684h-0.561c-17.96,0-35.359,0-53.32,0h-0.561
			c-1.122,0-1.684,1.122-1.684,1.684c0,1.122,0.561,1.684,1.684,1.684c1.684,0,3.368,0,5.051,0
			C480.439,472.359,487.735,472.359,495.031,472.359z"/>
	</g>
</g>
<g id="obligation5" display="none">
	<g display="inline">
		<path fill="#FF7900" d="M731.883,601.449c-0.561,170.623-138.631,308.132-309.254,307.57
			c-170.062-0.561-308.132-139.754-307.57-309.816c0.561-169.501,140.876-308.132,310.377-307.009
			C594.374,292.756,731.883,431.387,731.883,601.449z M690.35,600.888c0-147.05-119.548-267.721-266.037-267.721
			S156.592,452.715,156.03,599.204c-0.561,147.611,119.548,268.282,267.16,268.282C570.24,867.486,689.789,747.938,690.35,600.888z"
			/>
		<path fill="#1C1A44" d="M424.874,728.294c-5.051,0.561-10.664,0-14.593-1.684c-38.166-15.154-77.454-21.889-117.303-23.573
			c-3.929,0-7.296-1.122-11.786-1.684c0-66.229,0-132.457,0-199.809c42.656,1.123,84.75,5.051,123.477,23.012
			c6.174,2.806,11.786,5.051,17.399,5.051 M307.57,674.413c34.237,6.735,67.351,13.47,101.027,20.205
			c0.561-1.122,1.122-2.245,1.122-3.368c0-42.095,0.561-84.189,0-125.722c0-3.929-2.806-9.541-6.174-11.225
			c-29.747-16.277-62.3-21.328-96.537-24.134C307.57,578.437,307.57,626.144,307.57,674.413z"/>
		<path fill="#1C1A44" d="M421.506,529.608c5.613-0.561,12.909-2.245,19.083-5.051c38.727-18.522,80.26-21.889,123.477-23.012
			c0,67.351,0,133.58,0,199.809c-4.49,0.561-8.419,1.684-11.786,1.684c-40.411,2.245-79.699,8.98-117.303,23.573
			c-4.49,1.684-9.541,2.245-14.593,1.684 M537.687,529.608c-34.237,2.806-66.79,7.858-96.537,24.134
			c-3.368,1.684-6.174,7.296-6.174,11.225c-0.561,42.094,0,84.189,0,125.722c0,1.122,1.122,2.806,1.122,3.368
			c33.676-6.735,67.351-13.47,101.027-20.205C537.687,626.144,537.687,578.437,537.687,529.608z"/>
		
			<polyline fill="none" stroke="#FF7900" stroke-width="2" stroke-linecap="round" stroke-linejoin="round" stroke-miterlimit="10" points="
			454.059,619.409 470.897,633.441 516.359,592.469 		"/>
	</g>
</g>
<g id="obligation6" display="none">
	<g display="inline">
		<g>
			<path fill="#FF7900" d="M438.344,502.106L438.344,502.106c2.806-4.49,5.613-8.419,9.541-11.786
				c4.49-4.49,9.541-8.98,14.593-12.909c5.051-4.49,10.664-9.541,15.154-15.154c3.929-5.051,7.858-10.103,9.541-16.277
				c2.245-5.613,2.806-11.786,1.684-17.96c-2.245-14.031-15.715-24.134-30.308-21.889c-8.98,1.684-15.154,6.174-19.644,14.031
				c-0.561,0.561-0.561,1.123-1.122,1.684v-0.561c-5.051-11.225-16.838-17.399-29.185-15.154
				c-10.103,1.684-16.838,7.858-20.767,17.96c-1.684,5.051-1.684,10.664-0.561,15.715c1.123,6.174,3.929,11.225,7.296,16.277
				c3.929,5.613,8.419,10.103,13.47,14.593c5.613,5.051,11.225,10.103,16.838,15.154c3.368,3.368,6.735,6.735,9.541,10.103
				C436.099,499.3,437.222,500.422,438.344,502.106z"/>
			<path fill="#FF7900" d="M438.344,502.106c-1.122-1.684-2.245-3.368-3.368-5.051c-2.806-3.929-6.174-7.296-9.541-10.103
				c-5.613-5.051-11.225-10.103-16.838-15.154c-5.051-4.49-9.541-9.541-13.47-14.593c-3.368-5.051-6.174-10.103-7.296-16.277
				c-1.123-5.613-1.123-10.664,0.561-15.715c3.368-9.541,10.103-16.277,20.767-17.96c12.348-2.245,23.573,3.929,29.185,15.154v0.561
				c0.561-0.561,0.561-1.123,1.122-1.684c4.49-7.858,10.664-12.348,19.644-14.031c14.593-2.245,28.063,7.858,30.308,21.889
				c1.122,6.174,0,11.786-1.684,17.96c-2.245,6.174-5.613,11.225-9.541,16.277c-4.49,5.613-10.103,10.103-15.154,15.154
				c-5.051,4.49-9.541,8.419-14.593,12.909C443.957,493.687,440.589,497.616,438.344,502.106L438.344,502.106z"/>
		</g>
		<path fill="#FF7900" d="M727.393,592.469C726.832,763.092,588.762,900.6,418.139,900.039
			c-170.062-0.561-308.132-139.754-307.57-309.816c0.561-169.501,140.876-308.132,310.377-307.571
			C590.445,283.776,727.954,422.407,727.393,592.469z M685.86,591.907c0-147.05-119.548-267.721-266.037-267.721
			S152.101,443.735,151.54,590.224c-0.561,147.611,119.548,268.282,267.16,268.282C566.311,858.506,685.86,739.519,685.86,591.907z"
			/>
		<path fill="#1C1A44" d="M420.945,719.313c-5.051,0.561-10.664,0-14.593-1.684c-38.166-15.154-77.454-21.889-117.303-23.573
			c-3.929,0-7.296-1.122-11.786-1.684c0-66.229,0-132.457,0-199.809c42.656,1.122,84.75,5.051,123.477,23.012
			c6.174,2.806,11.786,5.051,17.399,5.051 M303.08,665.432c34.237,6.735,67.351,13.47,101.027,20.205
			c0.561-1.122,1.122-2.245,1.122-3.368c0-42.094,0.561-84.189,0-125.722c0-3.929-2.806-9.541-6.174-11.225
			c-29.747-16.277-62.3-21.328-96.537-24.134C303.08,569.457,303.08,617.164,303.08,665.432z"/>
		<path fill="#1C1A44" d="M417.577,520.627c5.613-0.561,12.909-2.245,19.083-5.051c38.727-18.522,80.26-21.889,123.477-23.012
			c0,67.351,0,133.58,0,199.809c-4.49,0.561-8.419,1.684-11.786,1.684c-40.411,2.245-79.699,8.98-117.303,23.573
			c-4.49,1.684-9.541,2.245-14.593,1.684 M533.197,520.627c-33.676,2.806-66.229,7.858-95.975,24.134
			c-3.368,1.684-6.174,7.296-6.174,11.225c-0.561,42.094,0,84.189,0,125.722c0,1.122,1.122,2.806,1.122,3.368
			c33.676-6.735,67.351-13.47,101.027-20.205C533.197,617.164,533.197,569.457,533.197,520.627z"/>
		<g>
			<line fill="none" x1="376.044" y1="600.888" x2="516.359" y2="600.888"/>
			<g>
				<line fill="none" stroke="#FF7900" stroke-miterlimit="10" x1="376.044" y1="603.694" x2="482.684" y2="603.694"/>
				<g>
					<path fill="#FF7900" d="M515.237,603.694c-15.715,6.174-35.921,16.277-47.707,26.94l9.541-26.94l-9.541-26.94
						C479.316,587.417,498.96,597.52,515.237,603.694z"/>
				</g>
			</g>
		</g>
		<polygon fill="#FF7900" stroke="#FF7900" stroke-miterlimit="10" points="432.731,517.26 350.787,454.399 350.787,772.633 
			431.609,717.63 		"/>
	</g>
</g>
<g id="obligation7" display="none">
	<g display="inline">
		<path fill="#1C1A44" d="M528.707,768.704c0-1.122,0-2.245,0-3.368c0-52.758,0-106.078,0-158.837
			c0-17.96-10.103-33.114-25.818-39.288c-26.94-10.103-55.565,9.541-55.565,38.727c0,31.431,0,62.3,0,93.73c0,1.122,0,2.245,0,3.929
			c-1.122,0-2.245,0-3.368,0c-31.431,0-62.3,0-93.73,0c-17.399,0-30.308,11.225-33.114,28.063
			c-3.368,17.96,11.786,36.482,30.308,37.043c1.684,0,3.929,0,5.613,0c57.249,0,114.497,0,172.307,0
			C525.901,768.704,527.584,768.704,528.707,768.704z"/>
		<path fill="#1C1A44" d="M487.735,416.794c-35.921,0-65.106,29.186-65.106,65.106s29.747,65.667,65.667,65.106
			c36.482-0.561,65.106-29.747,65.106-65.667C552.841,445.98,523.656,416.794,487.735,416.794z"/>
		<path fill="#FF7900" d="M729.638,603.694c-0.561,170.623-138.631,308.132-309.254,307.57
			c-170.062-0.561-308.132-139.754-307.57-309.815C113.375,431.948,253.69,293.317,423.19,294.44
			C592.129,295.001,729.638,433.632,729.638,603.694z M688.105,603.133c0-147.05-119.548-267.721-266.037-267.721
			S154.346,454.96,153.785,601.449c-0.561,147.611,119.548,268.282,267.16,268.282C567.995,869.731,688.105,750.744,688.105,603.133
			z"/>
		<path fill="#FF7900" d="M351.91,568.335c5.051,3.929,6.174,8.98,4.49,15.154c0,0.561,0,1.122,0.561,1.122
			c2.806,3.929,3.929,8.419,1.684,13.47c0,0.561,0,1.122,0,1.684c5.051,7.296,2.245,16.277-5.613,20.205
			c-13.47,6.174-26.379,12.909-39.849,19.083c-1.684,0.561-2.806,1.122-4.49,1.684c-11.786,2.806-23.573-2.806-28.624-14.031
			c-2.245-4.49-4.49-9.541-6.735-14.031c-1.684-3.929-3.929-7.858-5.613-12.348c-2.245-6.174-2.806-12.348-1.684-19.083
			c1.684-9.541,6.735-16.277,15.715-20.767c5.613-2.806,11.225-5.051,16.838-7.858c5.613-2.806,10.664-2.245,16.277,0
			c0.561,0.561,1.123,0.561,2.245,0c17.96-8.419,35.921-17.399,53.881-25.818c3.929-1.684,7.858-2.245,11.786-0.561
			c5.051,2.245,8.419,6.735,8.419,12.348s-2.245,10.103-7.296,12.909c-8.98,4.49-17.96,8.98-27.502,12.909
			C355.839,566.089,353.594,566.651,351.91,568.335C351.91,567.773,351.91,568.335,351.91,568.335z"/>
		<path fill="#FF7900" d="M418.7,680.587c-1.684,0-2.806,0-4.49,0c-42.094,0-84.75,0-126.845,0c-2.245,0-4.49-0.561-5.613-2.806
			c-21.889-37.604-43.778-75.209-65.667-112.813c0-0.561-0.561-1.122-1.123-2.245c4.49-2.245,8.98-5.051,13.47-7.296
			c1.123,1.684,1.684,2.806,2.245,3.929c19.644,34.237,39.849,67.912,59.494,102.149c1.684,2.806,3.929,4.49,7.296,4.49
			c38.727,0,77.454,0,116.181,0c1.684,0,3.368,0,5.613,0C418.7,671.045,418.7,675.535,418.7,680.587z"/>
	</g>
</g>
<g id="obligation8" display="none">
	<g display="inline">
		<path fill="#FF7900" d="M729.638,598.081c-0.561,170.623-138.631,308.132-309.254,307.571
			c-170.062-0.561-308.132-139.754-307.57-309.816c0.561-169.501,140.876-308.132,310.377-307.009
			C592.129,289.388,729.638,428.02,729.638,598.081z M688.105,597.52c0-147.05-119.548-267.721-266.037-267.721
			S154.346,449.347,153.785,595.836c-0.561,147.611,119.548,268.282,267.16,268.282C567.995,864.119,688.105,745.131,688.105,597.52
			z"/>
		<g>
			<path fill="#FF7900" d="M512.43,399.395c-12.348,12.348-24.134,24.134-36.482,36.482c-18.522-18.522-36.482-36.482-55.003-55.003
				c-18.522,18.522-36.482,36.482-55.004,55.003c-12.348-12.348-24.134-24.134-36.482-36.482c0,36.482,0,72.964,0,109.446
				c61.177,0,121.793,0,182.41,0C512.43,472.359,512.43,435.877,512.43,399.395z M329.46,527.363c0,12.348,0,24.134,0,36.482
				c61.177,0,121.793,0,182.409,0c0-12.348,0-24.134,0-36.482C451.253,527.363,390.637,527.363,329.46,527.363z"/>
			<path fill="#FF7900" d="M512.43,399.395c0,36.482,0,72.964,0,109.446c-60.616,0-121.793,0-182.41,0c0-36.482,0-72.964,0-109.446
				c12.348,12.348,24.134,24.134,36.482,36.482c18.522-18.522,36.482-36.482,55.004-55.003
				c18.522,18.522,36.482,36.482,55.004,55.003C487.735,423.529,500.083,411.743,512.43,399.395z"/>
			<path fill="#FF7900" d="M329.46,527.363c60.616,0,121.793,0,182.409,0c0,12.348,0,24.134,0,36.482c-60.616,0-121.793,0-182.41,0
				C329.46,551.497,329.46,539.71,329.46,527.363z"/>
		</g>
		<path fill="#1C1A44" d="M390.076,602.571c20.767,0,41.533,0,62.3,0c0,1.122,0,2.245,0,3.368
			c0.561,17.399,6.735,32.553,16.277,47.146c7.296,10.664,15.715,20.205,24.695,29.185c1.123,1.122,2.245,2.245,3.368,3.368
			c-25.818,40.972-46.585,83.628-68.474,126.284c-0.561,0-0.561,0-1.122,0c0-0.561,0.561-1.684,0.561-2.245
			c0-30.869,0-62.3,0-93.169c0-1.684,0.561-2.245,2.245-3.367c6.174-3.368,8.98-8.98,8.419-16.277
			c-0.561-6.735-2.806-12.348-9.541-15.154c-6.174-2.806-12.909-2.245-18.522,1.684c-8.419,6.174-9.541,20.205-1.684,26.94
			c1.122,0.561,2.245,1.684,2.806,1.684c1.684,1.122,2.806,2.245,2.806,4.49c0,25.818,0,51.636,0,77.454c0,5.613,0,10.664,0,16.277
			c0,0.561,0,1.122,0,2.245c-21.328-43.217-43.778-85.873-69.035-127.406c4.49-4.49,8.98-8.419,13.47-13.47
			c10.664-11.786,20.767-24.695,26.379-39.849c3.368-8.98,5.051-18.522,5.051-28.063
			C390.076,603.694,390.076,603.133,390.076,602.571z"/>
	</g>
</g>
<g id="book" display="none">
	<g display="inline">
		<g>
			<path fill="#1C1A44" d="M565.189,697.986c-43.217,1.122-85.873,5.613-125.722,23.012c-10.664,4.49-21.328,5.613-31.992,0.561
				c-28.624-12.909-58.371-18.522-89.24-21.328c-12.909-1.122-25.257-2.245-38.727-2.806c0-66.79,0-133.019,0-200.37
				c12.348,1.123,24.134,1.684,35.921,2.806c26.94,2.806,53.32,6.735,78.576,16.838c7.858,3.368,15.715,6.735,23.573,11.225
				c2.806,1.684,5.051,1.684,7.858,0c10.664-5.051,21.328-10.103,33.114-15.154c0,10.664,0,19.644,0,28.624
				c0,1.122-1.684,2.245-3.368,2.806c-5.613,2.806-11.225,5.051-16.277,8.419c-1.684,1.122-2.806,3.368-2.806,5.051
				c0,43.778,0,88.118,0,131.896c0,0.561,0,1.122,0.561,2.806c32.553-12.348,66.229-17.399,100.466-20.767
				c0-57.249,0-114.497,0-172.868c9.541-1.123,18.522-1.684,28.063-2.245C565.189,563.844,565.189,630.634,565.189,697.986z
				 M408.597,691.812c0-2.245,0.561-3.368,0.561-4.49c0-43.217,0-86.434,0-129.651c0-3.929-1.684-5.051-4.49-6.735
				c-19.644-10.664-40.411-16.277-62.3-20.205c-11.225-1.684-22.45-2.806-34.237-4.49c0,48.83,0,96.537,0,144.805
				C342.369,674.413,375.483,679.464,408.597,691.812z"/>
			<path fill="#1C1A44" d="M526.462,492.564c-6.735,4.49-7.296,11.225-7.296,17.96c0,23.573,0,47.146,0,71.841
				c-7.296-6.174-14.032-11.786-20.767-17.399c-6.735,8.419-12.909,16.277-20.205,24.695c0-2.245-0.561-3.929-0.561-5.051
				c0-21.889,0-43.778,0-65.667c0-11.786,4.49-17.399,15.715-20.767c10.664-2.806,21.889-5.051,32.553-7.858
				C525.901,491.442,525.901,492.003,526.462,492.564z"/>
		</g>
		<path fill="#1C1A44" d="M422.629,903.407c-168.939,0-307.009-137.509-307.009-307.009c0-168.939,137.509-307.009,307.009-307.009
			c168.939,0,307.009,137.509,307.009,307.009S592.129,903.407,422.629,903.407z M422.629,331.483
			c-145.928,0-264.915,118.987-264.915,264.915s118.987,264.915,264.915,264.915s264.915-118.987,264.915-264.915
			S569.118,331.483,422.629,331.483z"/>
	</g>
</g>
<g id="plus" display="none">
	<g display="inline">
		<path fill="#1C1A44" d="M422.629,906.774c-170.623,0-309.816-139.193-309.816-309.816c0-171.184,139.192-310.377,309.816-310.377
			s309.816,139.192,309.816,309.816C732.444,767.582,593.813,906.774,422.629,906.774z M422.629,328.676
			c-147.611,0-267.721,120.11-267.721,267.721S275.017,864.68,422.629,864.68S690.35,744.57,690.35,596.398
			S570.24,328.676,422.629,328.676z"/>
		<g>
			<rect x="401.862" y="475.165" fill="#1C1A44" width="42.095" height="242.464"/>
			<rect x="301.397" y="575.631" fill="#1C1A44" width="242.464" height="42.095"/>
		</g>
	</g>
</g>
<g id="arrow">
	<g>
		<path fill="#FFFFFF" d="M420.945,905.091c-170.062,0-308.693-138.631-308.693-308.693s138.631-308.693,308.693-308.693
			s308.693,138.631,308.693,308.693C729.638,767.021,591.007,905.091,420.945,905.091z M420.945,330.36
			c-147.05,0-266.599,119.548-266.599,266.599s119.548,266.599,266.599,266.599s266.599-119.548,266.599-266.599
			S567.995,330.36,420.945,330.36z"/>
		<polygon fill="#FFFFFF" points="591.568,540.833 561.821,511.086 420.945,651.962 280.069,511.086 250.322,540.833 
			391.198,681.709 391.198,681.709 420.945,711.456 420.945,711.456 420.945,711.456 450.692,681.709 450.692,681.709 		"/>
	</g>
</g>
<g id="son" display="none">
	<g display="inline">
		<path fill="#1C1A44" d="M279.507,552.058c4.49-11.225,12.909-15.154,24.695-14.593c10.664,0.561,21.889,0,33.114,0
			c0,35.359,0,69.596,0,105.517c-7.858,0-15.154,0-23.012,0c-3.368,0-6.735-0.561-10.664,0
			c-11.786,1.122-20.205-3.368-24.695-14.593C279.507,603.694,279.507,577.876,279.507,552.058z"/>
		<path fill="#1C1A44" d="M559.576,601.449c-1.684,7.296-2.806,14.593-4.49,21.328c-5.613,20.767-16.277,38.727-30.869,53.881
			c-5.613-5.613-11.225-11.225-16.838-17.399c17.96-18.522,28.063-41.533,28.063-68.474c0-26.94-9.541-49.952-27.502-69.035
			c5.613-5.613,11.225-11.225,17.399-17.399c1.684,1.684,4.49,4.49,6.735,7.296c15.154,18.522,24.695,39.288,27.502,63.422
			c0,1.684,0.561,3.368,1.122,4.49C559.576,586.856,559.576,594.153,559.576,601.449z"/>
		<path fill="#1C1A44" d="M450.692,700.792c-24.695-14.031-48.83-28.063-72.403-41.533c-6.174-3.368-15.154-6.174-17.96-11.225
			c-3.368-5.613-1.123-14.593-1.123-21.889c0-29.185,0-58.371,0-87.557c0-2.806,0-5.051,3.368-6.735
			c28.624-16.277,56.687-32.553,85.312-48.83c1.122-0.561,1.684-1.123,3.368-1.684C450.692,554.303,450.692,627.267,450.692,700.792
			z"/>
		<path fill="#1C1A44" d="M493.348,646.911c-5.613-5.613-10.664-10.664-16.277-16.838c10.103-11.225,16.277-24.134,16.277-39.849
			s-5.613-28.624-15.715-39.849c5.613-5.613,11.225-11.225,16.277-16.838C525.339,563.844,524.778,618.848,493.348,646.911z"/>
	</g>
</g>
</svg>
