<?xml version="1.0" encoding="utf-8"?>
<!-- Generator: Adobe Illustrator 17.0.0, SVG Export Plug-In . SVG Version: 6.00 Build 0)  -->
<!DOCTYPE svg PUBLIC "-//W3C//DTD SVG 1.1//EN" "http://www.w3.org/Graphics/SVG/1.1/DTD/svg11.dtd">
<svg version="1.1" id="Calque_1" xmlns="http://www.w3.org/2000/svg" xmlns:xlink="http://www.w3.org/1999/xlink" x="0px" y="0px"
	 width="841.89px" height="1190.55px" viewBox="0 0 841.89 1190.55" enable-background="new 0 0 841.89 1190.55"
	 xml:space="preserve">
<g>
	<path fill="#FFFFFF" d="M422.181,673.308c-42.515,0-77.173-34.658-77.173-77.173s34.658-77.173,77.173-77.173
		s77.173,34.658,77.173,77.173C499.354,638.79,464.697,673.308,422.181,673.308z M422.181,529.625
		c-36.763,0-66.65,29.887-66.65,66.65s29.887,66.65,66.65,66.65s66.65-29.887,66.65-66.65S458.944,529.625,422.181,529.625z"/>
	<polygon fill="#FFFFFF" points="464.837,582.244 457.4,574.807 422.181,610.026 386.962,574.807 379.525,582.244 414.745,617.463 
		414.745,617.463 422.181,624.899 422.181,624.899 422.181,624.899 429.618,617.463 429.618,617.463 	"/>
</g>
</svg>
