<?xml version="1.0" encoding="utf-8"?>
<!-- Generator: Adobe Illustrator 17.0.0, SVG Export Plug-In . SVG Version: 6.00 Build 0)  -->
<!DOCTYPE svg PUBLIC "-//W3C//DTD SVG 1.1//EN" "http://www.w3.org/Graphics/SVG/1.1/DTD/svg11.dtd">
<svg version="1.1" id="Calque_1" xmlns="http://www.w3.org/2000/svg" xmlns:xlink="http://www.w3.org/1999/xlink" x="0px" y="0px"
	 width="111.632px" height="111.632px" viewBox="172.372 87.941 111.632 111.632"
	 enable-background="new 172.372 87.941 111.632 111.632" xml:space="preserve">
<g>
	<path fill="#FF7900" d="M132.352,143.91c-0.102,30.879-25.089,55.765-55.968,55.663c-30.777-0.102-55.765-25.292-55.663-56.069
		c0.102-30.676,25.495-55.765,56.171-55.562C107.568,88.044,132.454,113.234,132.352,143.91z M124.836,143.91
		c0-26.613-21.635-48.451-48.147-48.451s-48.451,21.635-48.553,48.147c-0.102,26.714,21.635,48.553,48.35,48.553
		C103.2,192.158,124.836,170.523,124.836,143.91z"/>
	<path fill="#1C1A44" d="M76.892,166.968c-0.914,0.102-1.93,0-2.641-0.305c-6.907-2.743-14.017-3.961-21.229-4.266
		c-0.711,0-1.32-0.203-2.133-0.305c0-11.986,0-23.972,0-36.161c7.72,0.203,15.338,0.914,22.347,4.165
		c1.117,0.508,2.133,0.914,3.149,0.914 M55.663,157.115c6.196,1.219,12.189,2.438,18.284,3.657c0.102-0.203,0.203-0.406,0.203-0.609
		c0-7.618,0.102-15.236,0-22.753c0-0.711-0.508-1.727-1.117-2.031c-5.383-2.946-11.275-3.86-17.471-4.368
		C55.663,139.847,55.663,148.481,55.663,157.115z"/>
	<path fill="#1C1A44" d="M76.283,131.01c1.016-0.102,2.336-0.406,3.454-0.914c7.009-3.352,14.525-3.961,22.347-4.165
		c0,12.189,0,24.175,0,36.161c-0.813,0.102-1.524,0.305-2.133,0.305c-7.313,0.406-14.424,1.625-21.229,4.266
		c-0.813,0.305-1.727,0.406-2.641,0.305 M97.309,130.908c-6.196,0.609-12.087,1.422-17.471,4.469
		c-0.609,0.305-1.117,1.32-1.117,2.031c-0.102,7.618,0,15.236,0,22.753c0,0.203,0.203,0.508,0.203,0.609
		c6.094-1.219,12.189-2.438,18.284-3.657C97.309,148.481,97.309,139.847,97.309,130.908z"/>
	<g>
		<path fill="#FF7900" d="M89.386,137.308L89.386,137.308c0.508-0.813,1.016-1.524,1.727-2.133c0.813-0.813,1.727-1.625,2.641-2.336
			c0.914-0.813,1.93-1.727,2.743-2.743c0.711-0.914,1.422-1.828,1.727-2.946c0.406-1.016,0.508-2.133,0.305-3.25
			c-0.406-2.539-2.844-4.368-5.485-3.961c-1.625,0.305-2.743,1.117-3.555,2.539c-0.102,0.102-0.102,0.203-0.203,0.305v-0.102
			c-0.914-2.032-3.047-3.149-5.282-2.743c-1.828,0.305-3.047,1.422-3.758,3.25c-0.305,0.914-0.305,1.93-0.102,2.844
			c0.203,1.117,0.711,2.032,1.32,2.946c0.711,1.016,1.524,1.828,2.438,2.641c1.016,0.914,2.032,1.828,3.047,2.743
			c0.609,0.609,1.219,1.219,1.727,1.828C88.98,136.8,89.183,137.003,89.386,137.308z"/>
		<path fill="#FF7900" d="M89.386,137.308c-0.203-0.305-0.406-0.609-0.609-0.914c-0.508-0.711-1.117-1.32-1.727-1.828
			c-1.016-0.914-2.032-1.828-3.047-2.743c-0.914-0.813-1.727-1.727-2.438-2.641c-0.609-0.914-1.016-1.828-1.32-2.946
			c-0.203-1.016-0.203-1.93,0.102-2.844c0.609-1.727,1.828-2.946,3.758-3.25c2.235-0.406,4.266,0.711,5.282,2.743v0.102
			c0.102-0.102,0.102-0.203,0.203-0.305c0.813-1.422,1.93-2.235,3.555-2.539c2.641-0.406,5.079,1.422,5.485,3.961
			c0.203,1.117,0,2.133-0.305,3.25c-0.406,1.117-1.016,2.032-1.727,2.946c-0.813,1.016-1.828,1.828-2.743,2.743
			c-0.914,0.813-1.727,1.524-2.641,2.336C90.402,135.784,89.894,136.495,89.386,137.308L89.386,137.308z"/>
	</g>
</g>
<g>
	<path fill="#FF7900" d="M284.41,143.91c-0.102,30.879-25.089,55.765-55.968,55.663c-30.777-0.102-55.765-25.292-55.663-56.069
		c0.102-30.676,25.495-55.765,56.171-55.562C259.524,88.044,284.41,113.234,284.41,143.91z M276.893,143.91
		c0-26.613-21.635-48.451-48.147-48.451s-48.451,21.635-48.553,48.147c-0.102,26.714,21.635,48.553,48.35,48.553
		C255.156,192.158,276.893,170.523,276.893,143.91z"/>
	<path fill="#1C1A44" d="M228.848,140.66c-0.711,0-1.32,0-1.93-0.203c-4.977-1.93-10.056-2.844-15.338-3.047
		c-0.508,0-0.914-0.102-1.524-0.203c0-8.634,0-17.268,0-26.003c5.587,0.203,11.072,0.609,16.049,3.047
		c0.813,0.406,1.524,0.609,2.235,0.711 M213.511,133.549c4.469,0.914,8.837,1.727,13.205,2.641c0-0.102,0.203-0.305,0.203-0.406
		c0-5.485,0.102-10.97,0-16.455c0-0.508-0.406-1.219-0.813-1.524c-3.86-2.133-8.126-2.743-12.595-3.149
		C213.511,121.157,213.511,127.353,213.511,133.549z"/>
	<path fill="#1C1A44" d="M228.442,114.758c0.711-0.102,1.727-0.305,2.539-0.711c5.079-2.336,10.462-2.844,16.049-3.047
		c0,8.735,0,17.369,0,26.003c-0.609,0.102-1.117,0.203-1.524,0.203c-5.282,0.305-10.361,1.117-15.338,3.047
		c-0.508,0.203-1.219,0.305-1.93,0.203 M243.577,114.656c-4.469,0.406-8.735,1.016-12.595,3.149
		c-0.406,0.203-0.813,1.016-0.813,1.524c0,5.485,0,10.97,0,16.455c0,0.203,0.102,0.305,0.203,0.406
		c4.368-0.914,8.735-1.727,13.205-2.641C243.577,127.353,243.577,121.157,243.577,114.656z"/>
	<path fill="#FF7900" d="M206.705,154.982c-0.711-1.524-1.625-2.743-2.641-3.86c-0.711-0.711-1.524-1.32-2.336-2.031
		c-1.524-1.32-2.235-2.844-2.032-4.774c0.203-2.031,2.539-2.946,4.368-1.524c0.914,0.711,1.727,1.422,2.539,2.133
		c1.219,1.117,2.336,2.235,3.454,3.352c1.625,1.625,3.758,2.641,5.688,3.86c1.524,0.914,3.047,1.828,4.469,2.844
		c2.946,2.031,4.774,4.876,5.485,8.532c0.914,4.469,0.914,8.837,0.305,13.306c-0.102,0.813-0.203,1.524-0.305,2.336
		c-0.102,0.813-0.406,0.914-1.117,0.914c-3.047,0-6.196,0-9.243,0c-0.711,0-1.016-0.203-1.117-0.914
		c-0.102-1.117-0.102-2.235-0.102-3.352c-0.203-4.368-2.336-7.313-6.298-9.142c-3.352-1.524-6.501-3.555-9.345-5.891
		c-0.406-0.305-0.711-0.609-0.914-1.016c-1.625-2.438-3.25-4.876-4.774-7.415c-1.117-1.828-2.336-3.657-2.641-5.79
		c-0.203-1.524-0.406-3.047-0.609-4.469c-0.203-2.133-0.508-4.266-0.203-6.399c0.102-0.711,0.305-1.32,0.508-2.032
		c0.305-0.914,1.016-1.524,2.031-1.524c1.016,0,1.524,0.609,1.93,1.422c0.813,1.727,1.219,3.657,1.016,5.485
		c-0.203,3.149,0.813,5.79,2.641,8.228c1.117,1.625,2.133,3.352,3.454,4.876c1.32,1.625,3.047,2.539,5.079,2.844
		C205.994,154.982,206.299,154.88,206.705,154.982z"/>
	<path fill="#FF7900" d="M250.992,154.982c1.93,0,3.657-0.711,4.977-1.93c0.914-0.813,1.625-1.828,2.438-2.743
		c0.914-1.219,1.727-2.539,2.539-3.758c1.016-1.524,1.828-3.149,2.032-4.977c0.102-0.813,0.102-1.727,0.102-2.539
		c0-1.727,0.203-3.454,0.914-5.079c0.102-0.305,0.305-0.711,0.508-1.016c0.914-1.32,2.539-1.422,3.352,0
		c0.406,0.711,0.711,1.625,0.813,2.539c0.305,2.133,0.102,4.368-0.203,6.501c-0.203,1.524-0.406,2.946-0.609,4.469
		c-0.305,2.133-1.422,3.961-2.641,5.688c-1.625,2.539-3.25,5.079-4.876,7.517c-0.406,0.609-1.117,1.219-1.727,1.625
		c-2.743,2.133-5.688,3.86-8.837,5.383c-4.165,1.93-6.298,5.383-6.094,10.259c0,0.711,0,1.422-0.102,2.133
		c-0.102,0.609-0.406,0.914-1.117,0.914c-3.149,0-6.196,0-9.345,0c-0.711,0-1.016-0.203-1.117-0.914
		c-0.305-2.336-0.609-4.774-0.813-7.11c-0.203-3.758,0.305-7.415,1.422-11.072c0.609-1.828,1.727-3.25,3.047-4.469
		c2.031-2.031,4.469-3.454,7.009-4.672c2.438-1.219,4.571-2.946,6.501-4.876c1.32-1.32,2.641-2.539,4.063-3.758
		c0.609-0.508,1.32-0.813,2.133-0.813c1.524,0,2.438,0.813,2.539,2.235c0.203,2.031-0.609,3.657-2.235,4.876
		C254.039,150.512,251.703,153.255,250.992,154.982z"/>
</g>
<g>
	<path fill="#FF7900" d="M436.773,143.91c-0.102,30.879-25.089,55.765-55.968,55.663c-30.777-0.102-55.765-25.292-55.663-56.069
		c0.102-30.676,25.495-55.765,56.171-55.562C411.887,88.044,436.773,113.234,436.773,143.91z M429.256,143.91
		c0-26.613-21.635-48.451-48.147-48.451s-48.451,21.635-48.553,48.147c-0.102,26.714,21.635,48.553,48.35,48.553
		C407.519,192.158,429.256,170.523,429.256,143.91z"/>
	<g>
		<path fill="#1C1A44" d="M350.637,173.976c0.305,0,0.609,0,0.813,0c11.478,0,22.956,0,34.434,0c0.406,0,0.711,0,1.117,0
			c3.657-0.102,6.704-3.86,5.993-7.415c-0.609-3.454-3.25-5.587-6.704-5.587c-6.196,0-12.494,0-18.69,0c-0.203,0-0.406,0-0.711,0
			c0-0.305,0-0.508,0-0.711c0-6.298,0-12.494,0-18.791c0-5.79-5.688-9.751-11.173-7.72c-3.25,1.219-5.18,4.266-5.18,7.923
			c0,10.564,0,21.229,0,31.793C350.637,173.57,350.637,173.672,350.637,173.976z M371.968,106.937
			c-7.212,0-13.002,5.79-13.103,13.002c-0.102,7.212,5.79,13.002,13.002,13.103c7.212,0.102,13.103-5.891,13.103-13.103
			C384.969,112.828,379.179,106.937,371.968,106.937z M393.197,173.976c0.203,0,0.203,0,0.305,0c5.18,0,10.361,0,15.643,0
			c0.406,0,0.508-0.203,0.609-0.508c2.539-5.18,5.18-10.259,7.72-15.439c0.102-0.102,0.102-0.305,0.203-0.508
			c-4.063-2.743-8.126-5.383-12.291-8.126c-0.508,1.117-1.117,2.133-1.625,3.25c2.438,1.625,4.774,3.149,7.212,4.774
			c0,0,0,0.102-0.102,0.102c-0.203,0-0.406,0-0.609,0c-2.844,0-5.587,0-8.431,0c-0.406,0-0.609,0.102-0.813,0.508
			c-2.539,5.079-5.079,10.157-7.618,15.338C393.4,173.57,393.298,173.773,393.197,173.976z M394.822,141.269
			c0-4.469-3.657-8.126-8.126-8.126s-8.228,3.657-8.228,8.228c0,4.571,3.657,8.228,8.228,8.126
			C391.165,149.395,394.822,145.738,394.822,141.269z M386.594,157.623c0.305-2.336-1.32-5.383-3.657-6.806
			c-2.844-1.727-5.79-1.828-8.634-0.203c-2.641,1.524-3.86,3.961-3.961,7.009C375.726,157.623,381.109,157.623,386.594,157.623z"/>
		<path fill="#1C1A44" d="M350.637,173.976c0-0.305,0-0.406,0-0.609c0-10.564,0-21.229,0-31.793c0-3.657,2.031-6.704,5.18-7.923
			c5.383-2.031,11.072,1.93,11.173,7.72c0,6.298,0,12.494,0,18.791c0,0.203,0,0.406,0,0.711c0.305,0,0.508,0,0.711,0
			c6.196,0,12.494,0,18.69,0c3.454,0,6.095,2.235,6.704,5.587c0.609,3.657-2.336,7.313-5.993,7.415c-0.406,0-0.711,0-1.117,0
			c-11.478,0-22.956,0-34.434,0C351.246,173.976,351.043,173.976,350.637,173.976z"/>
		<path fill="#1C1A44" d="M371.968,106.937c7.212,0,13.103,5.891,13.002,13.103c0,7.212-5.993,13.103-13.103,13.103
			c-7.212-0.102-13.103-5.993-13.002-13.103C358.864,112.727,364.756,106.937,371.968,106.937z"/>
		<path fill="#1C1A44" d="M393.197,173.976c0.102-0.203,0.203-0.406,0.203-0.508c2.539-5.079,5.079-10.158,7.618-15.338
			c0.203-0.406,0.406-0.508,0.813-0.508c2.844,0,5.587,0,8.431,0c0.203,0,0.406,0,0.609,0c0,0,0-0.102,0.102-0.102
			c-2.336-1.625-4.774-3.149-7.212-4.774c0.508-1.117,1.117-2.133,1.625-3.25c4.063,2.743,8.126,5.485,12.291,8.126
			c-0.102,0.203-0.102,0.305-0.203,0.508c-2.539,5.18-5.18,10.259-7.72,15.439c-0.102,0.305-0.203,0.508-0.609,0.508
			c-5.18,0-10.361,0-15.643,0C393.4,173.976,393.4,173.976,393.197,173.976z"/>
		<path fill="#1C1A44" d="M394.822,141.269c0,4.469-3.657,8.126-8.126,8.228c-4.469,0-8.228-3.657-8.228-8.126
			c0-4.469,3.657-8.228,8.228-8.228C391.165,133.143,394.822,136.8,394.822,141.269z"/>
		<path fill="#1C1A44" d="M386.594,157.623c-5.383,0-10.869,0-16.252,0c0.102-3.047,1.422-5.383,3.961-7.009
			c2.844-1.727,5.79-1.625,8.634,0.203C385.274,152.239,386.798,155.286,386.594,157.623z"/>
	</g>
	<path fill="#FF7900" d="M393.298,108.664c0.711-0.711,1.219-1.32,1.828-1.93c6.196,4.876,6.196,16.049,0,21.737
		c-0.609-0.711-1.117-1.422-1.727-2.032C398.377,119.634,397.361,113.945,393.298,108.664z"/>
	<path fill="#FF7900" d="M391.165,124.712c-0.609-0.711-1.117-1.219-1.828-1.93c2.336-3.352,2.743-6.704-0.102-10.462
		c0.711-0.609,1.422-1.117,2.032-1.727C395.33,114.25,395.33,120.548,391.165,124.712z"/>
</g>
<g>
	<path fill="#FF7900" d="M132.454,296.984c-0.102,30.879-25.089,55.765-55.968,55.663c-30.777-0.102-55.765-25.292-55.663-56.069
		c0.102-30.676,25.495-55.765,56.171-55.562C107.568,241.117,132.454,266.206,132.454,296.984z M124.937,296.882
		c0-26.613-21.635-48.451-48.147-48.451s-48.451,21.635-48.553,48.147c-0.102,26.714,21.635,48.553,48.35,48.553
		C103.2,345.13,124.836,323.495,124.937,296.882z"/>
	<path fill="#1C1A44" d="M76.892,319.94c-0.914,0.102-1.93,0-2.641-0.305c-6.907-2.743-14.017-3.961-21.229-4.266
		c-0.711,0-1.32-0.203-2.133-0.305c0-11.986,0-23.972,0-36.161c7.72,0.203,15.338,0.914,22.347,4.165
		c1.117,0.508,2.133,0.914,3.149,0.914 M55.663,310.188c6.196,1.219,12.189,2.438,18.284,3.657c0.102-0.203,0.203-0.406,0.203-0.609
		c0-7.618,0.102-15.236,0-22.753c0-0.711-0.508-1.727-1.117-2.031c-5.383-2.946-11.275-3.86-17.471-4.368
		C55.663,292.819,55.663,301.453,55.663,310.188z"/>
	<path fill="#1C1A44" d="M76.283,283.982c1.016-0.102,2.336-0.406,3.454-0.914c7.009-3.352,14.525-3.961,22.347-4.165
		c0,12.189,0,24.175,0,36.161c-0.813,0.102-1.524,0.305-2.133,0.305c-7.313,0.406-14.424,1.625-21.229,4.266
		c-0.813,0.305-1.727,0.406-2.641,0.305 M97.309,283.982c-6.196,0.508-12.087,1.422-17.471,4.368
		c-0.609,0.305-1.117,1.32-1.117,2.032c-0.102,7.618,0,15.236,0,22.753c0,0.203,0.203,0.508,0.203,0.609
		c6.094-1.219,12.189-2.438,18.284-3.657C97.309,301.453,97.309,292.819,97.309,283.982z"/>
	
		<polyline fill="none" stroke="#FF7900" stroke-width="2" stroke-linecap="round" stroke-linejoin="round" stroke-miterlimit="10" points="
		82.174,300.234 85.221,302.773 93.449,295.358 	"/>
</g>
<g>
	<g>
		<path fill="#FF7900" d="M231.693,280.021L231.693,280.021c0.508-0.813,1.016-1.524,1.727-2.133
			c0.813-0.813,1.727-1.625,2.641-2.336c0.914-0.813,1.93-1.727,2.743-2.743c0.711-0.914,1.422-1.828,1.727-2.946
			c0.406-1.016,0.508-2.133,0.305-3.25c-0.406-2.539-2.844-4.368-5.485-3.961c-1.625,0.305-2.743,1.117-3.555,2.539
			c-0.102,0.102-0.102,0.203-0.203,0.305v-0.102c-0.914-2.032-3.047-3.149-5.282-2.743c-1.828,0.305-3.047,1.422-3.758,3.25
			c-0.305,0.914-0.305,1.93-0.102,2.844c0.203,1.117,0.711,2.031,1.32,2.946c0.711,1.016,1.524,1.828,2.438,2.641
			c1.016,0.914,2.031,1.828,3.047,2.743c0.609,0.609,1.219,1.219,1.727,1.828C231.286,279.513,231.489,279.716,231.693,280.021z"/>
		<path fill="#FF7900" d="M231.693,280.021c-0.203-0.305-0.406-0.609-0.609-0.914c-0.508-0.711-1.117-1.32-1.727-1.828
			c-1.016-0.914-2.031-1.828-3.047-2.743c-0.914-0.813-1.727-1.727-2.438-2.641c-0.609-0.914-1.117-1.828-1.32-2.946
			c-0.203-1.016-0.203-1.93,0.102-2.844c0.609-1.727,1.828-2.946,3.758-3.25c2.235-0.406,4.266,0.711,5.282,2.743v0.102
			c0.102-0.102,0.102-0.203,0.203-0.305c0.813-1.422,1.93-2.235,3.555-2.539c2.641-0.406,5.079,1.422,5.485,3.961
			c0.203,1.117,0,2.133-0.305,3.25c-0.406,1.117-1.016,2.031-1.727,2.946c-0.813,1.016-1.828,1.828-2.743,2.743
			c-0.914,0.813-1.727,1.524-2.641,2.336C232.708,278.497,232.099,279.208,231.693,280.021L231.693,280.021z"/>
	</g>
	<path fill="#FF7900" d="M284.004,296.374c-0.102,30.879-25.089,55.765-55.968,55.663c-30.777-0.102-55.765-25.292-55.663-56.069
		c0.102-30.676,25.495-55.765,56.171-55.562C259.219,240.508,284.105,265.597,284.004,296.374z M276.487,296.273
		c0-26.613-21.635-48.451-48.147-48.451s-48.451,21.635-48.553,48.147c-0.102,26.714,21.635,48.553,48.35,48.553
		S276.487,322.987,276.487,296.273z"/>
	<path fill="#1C1A44" d="M228.544,319.33c-0.914,0.102-1.93,0-2.641-0.305c-6.907-2.743-14.017-3.961-21.229-4.266
		c-0.711,0-1.32-0.203-2.133-0.305c0-11.986,0-23.972,0-36.161c7.72,0.203,15.338,0.914,22.347,4.165
		c1.117,0.508,2.133,0.914,3.149,0.914 M207.213,309.579c6.196,1.219,12.189,2.438,18.283,3.657
		c0.102-0.203,0.203-0.406,0.203-0.609c0-7.618,0.102-15.236,0-22.753c0-0.711-0.508-1.727-1.117-2.031
		c-5.383-2.946-11.275-3.86-17.471-4.368C207.213,292.21,207.213,300.843,207.213,309.579z"/>
	<path fill="#1C1A44" d="M227.934,283.373c1.016-0.102,2.336-0.406,3.454-0.914c7.009-3.352,14.525-3.961,22.346-4.165
		c0,12.189,0,24.175,0,36.161c-0.813,0.102-1.524,0.305-2.133,0.305c-7.313,0.406-14.424,1.625-21.229,4.266
		c-0.813,0.305-1.727,0.406-2.641,0.305 M248.859,283.373c-6.196,0.508-12.087,1.422-17.471,4.368
		c-0.609,0.305-1.117,1.32-1.117,2.031c-0.102,7.618,0,15.236,0,22.753c0,0.203,0.203,0.508,0.203,0.609
		c6.094-1.219,12.189-2.438,18.283-3.657C248.859,300.843,248.859,292.21,248.859,283.373z"/>
	<g>
		<line fill="none" x1="220.418" y1="297.898" x2="245.812" y2="297.898"/>
		<g>
			<line fill="none" stroke="#FF7900" stroke-miterlimit="10" x1="220.418" y1="298.406" x2="239.717" y2="298.406"/>
			<g>
				<path fill="#FF7900" d="M245.608,298.406c-2.844,1.117-6.501,2.946-8.634,4.876l1.727-4.876l-1.727-4.876
					C239.108,295.46,242.663,297.288,245.608,298.406z"/>
			</g>
		</g>
	</g>
	<polygon fill="#FF7900" stroke="#FF7900" stroke-miterlimit="10" points="230.677,282.763 215.847,271.387 215.847,328.98 
		230.474,319.025 	"/>
</g>
<g>
	<path fill="#FF7900" d="M589.135,296.374c-0.102,30.879-25.089,55.765-55.968,55.663c-30.777-0.102-55.765-25.292-55.663-56.069
		c0.102-30.676,25.495-55.765,56.171-55.562C564.249,240.508,589.135,265.597,589.135,296.374z M581.618,296.273
		c0-26.613-21.635-48.451-48.147-48.451c-26.511,0-48.451,21.635-48.553,48.147c-0.102,26.714,21.635,48.553,48.35,48.553
		C559.881,344.521,581.618,322.987,581.618,296.273z"/>
	<g>
		<path fill="#FF7900" d="M549.826,260.417c-2.235,2.235-4.368,4.368-6.602,6.602c-3.352-3.352-6.602-6.602-9.954-9.954
			c-3.352,3.352-6.602,6.602-9.954,9.954c-2.235-2.235-4.368-4.368-6.602-6.602c0,6.602,0,13.205,0,19.807
			c11.072,0,22.042,0,33.012,0C549.826,273.621,549.826,267.019,549.826,260.417z M516.712,283.576c0,2.235,0,4.368,0,6.602
			c11.072,0,22.042,0,33.012,0c0-2.235,0-4.368,0-6.602C538.754,283.576,527.784,283.576,516.712,283.576z"/>
		<path fill="#FF7900" d="M549.826,260.417c0,6.602,0,13.205,0,19.807c-10.97,0-22.042,0-33.012,0c0-6.602,0-13.205,0-19.807
			c2.235,2.235,4.368,4.368,6.602,6.602c3.352-3.352,6.602-6.602,9.954-9.954c3.352,3.352,6.602,6.602,9.954,9.954
			C545.356,264.784,547.591,262.651,549.826,260.417z"/>
		<path fill="#FF7900" d="M516.712,283.576c10.97,0,22.042,0,33.012,0c0,2.235,0,4.368,0,6.602c-10.97,0-22.042,0-33.012,0
			C516.712,287.943,516.712,285.81,516.712,283.576z"/>
	</g>
	<path fill="#1C1A44" d="M527.682,297.187c3.758,0,7.517,0,11.275,0c0,0.203,0,0.406,0,0.609c0.102,3.149,1.219,5.891,2.946,8.532
		c1.32,1.93,2.844,3.657,4.469,5.282c0.203,0.203,0.406,0.406,0.609,0.609c-4.672,7.415-8.431,15.135-12.392,22.854
		c-0.102,0-0.102,0-0.203,0c0-0.102,0.102-0.305,0.102-0.406c0-5.587,0-11.275,0-16.861c0-0.305,0.102-0.406,0.406-0.609
		c1.117-0.609,1.625-1.625,1.524-2.946c-0.102-1.219-0.508-2.235-1.727-2.743c-1.117-0.508-2.336-0.406-3.352,0.305
		c-1.524,1.117-1.727,3.657-0.305,4.876c0.203,0.102,0.406,0.305,0.508,0.305c0.305,0.203,0.508,0.406,0.508,0.813
		c0,4.672,0,9.345,0,14.017c0,1.016,0,1.93,0,2.946c0,0.102,0,0.203,0,0.406c-3.86-7.923-7.923-15.541-12.494-23.057
		c0.813-0.813,1.625-1.524,2.438-2.438c1.93-2.133,3.758-4.469,4.774-7.212c0.609-1.625,0.914-3.352,0.914-5.079
		C527.682,297.39,527.682,297.288,527.682,297.187z"/>
</g>
<g>
	<path fill="#FF7900" d="M589.135,143.91c-0.102,30.879-25.089,55.765-55.968,55.663c-30.777-0.102-55.765-25.292-55.663-56.069
		c0.102-30.676,25.495-55.765,56.171-55.562C564.249,88.044,589.135,113.234,589.135,143.91z M581.618,143.91
		c0-26.613-21.635-48.451-48.147-48.451c-26.511,0-48.451,21.635-48.553,48.147c-0.102,26.714,21.635,48.553,48.35,48.553
		C559.881,192.158,581.618,170.523,581.618,143.91z"/>
	<path fill="#1C1A44" d="M514.782,173.976c0-0.203,0-0.406,0-0.609c0-9.548,0-19.198,0-28.746c0-3.25,1.828-5.993,4.672-7.11
		c4.876-1.828,10.056,1.727,10.056,7.009c0,5.688,0,11.275,0,16.963c0,0.203,0,0.406,0,0.711c0.203,0,0.406,0,0.609,0
		c5.688,0,11.275,0,16.963,0c3.149,0,5.485,2.031,5.993,5.079c0.609,3.25-2.133,6.602-5.485,6.704c-0.305,0-0.711,0-1.016,0
		c-10.361,0-20.721,0-31.184,0C515.29,173.976,515.087,173.976,514.782,173.976z"/>
	<path fill="#1C1A44" d="M522.197,110.289c6.501,0,11.783,5.282,11.783,11.783c0,6.501-5.383,11.884-11.884,11.783
		c-6.602-0.102-11.783-5.383-11.783-11.884C510.414,115.571,515.696,110.289,522.197,110.289z"/>
	<path fill="#1C1A44" d="M534.081,156.099c0.102-0.203,0.102-0.305,0.203-0.508c2.336-4.571,4.571-9.243,6.907-13.814
		c0.203-0.305,0.305-0.508,0.711-0.406c2.539,0,5.079,0,7.618,0c0.203,0,0.406,0,0.508,0v-0.102
		c-2.133-1.422-4.266-2.844-6.501-4.368c0.508-1.016,1.016-1.93,1.524-2.946c3.758,2.438,7.415,4.876,11.072,7.415
		c-0.102,0.203-0.102,0.305-0.203,0.406c-2.336,4.672-4.672,9.243-7.009,13.916c-0.102,0.203-0.203,0.406-0.609,0.406
		c-4.672,0-9.446,0-14.119,0C534.285,156.099,534.183,156.099,534.081,156.099z"/>
	<path fill="#FF7900" stroke="#FF7900" stroke-miterlimit="10" d="M542.817,126.338c-0.609,0-1.219,0-1.828-0.102
		c-2.438-0.406-4.266-2.539-4.266-4.977c0-1.828,0-3.758,0-5.587c0-0.305,0-0.609,0.102-0.813c0.406-2.438,2.539-4.266,5.079-4.266
		c3.454,0,7.009,0,10.462,0c0.203,0,0.406,0,0.609,0c2.539,0.305,4.469,2.438,4.469,5.079c0,1.828,0,3.657,0,5.485
		c0,0.813-0.102,1.524-0.508,2.235c-0.914,1.828-2.438,2.844-4.469,2.946c-1.219,0.102-2.539,0-3.758,0
		c-0.102,0-0.203,0-0.203,0.102c-1.32,1.32-2.641,2.641-4.063,4.063c-0.305,0.305-0.609,0.609-0.914,0.914
		c-0.102,0.102-0.203,0.102-0.305,0.102c-0.203,0-0.203-0.203-0.203-0.406c0-1.524,0-3.047,0-4.571c0-0.102,0-0.102,0-0.203
		C542.918,126.338,542.918,126.338,542.817,126.338z M543.833,130.299c1.422-1.422,2.946-2.946,4.368-4.368
		c0.102-0.102,0.305-0.203,0.508-0.203c1.219,0,2.438,0,3.758,0c1.828,0,3.25-0.914,4.063-2.539
		c0.305-0.609,0.406-1.219,0.406-1.828c0-1.828,0-3.657,0-5.587c0-2.235-1.625-4.165-3.86-4.368c-0.203,0-0.406,0-0.711,0
		c-3.454,0-6.907,0-10.361,0c-1.93,0-3.352,0.914-4.165,2.641c-0.305,0.609-0.406,1.219-0.406,1.828c0,1.828,0,3.657,0,5.485
		c0,2.235,1.625,4.165,3.86,4.368c0.609,0.102,1.117,0,1.727,0c0.508,0,0.609,0,0.609,0.609c0,1.32,0,2.641,0,3.961
		c0,0.102,0,0.102,0,0.203c0,0,0,0,0.102,0.102C543.731,130.401,543.731,130.299,543.833,130.299z"/>
	<path fill="#FF7900" stroke="#FF7900" stroke-miterlimit="10" d="M547.185,118.821c1.625,0,3.25,0,4.774,0c0.102,0,0.102,0,0.203,0
		c0.102,0,0.203-0.203,0.203-0.305c0-0.102-0.102-0.203-0.305-0.305c-0.102,0-0.102,0-0.203,0c-3.149,0-6.399,0-9.548,0h-0.102
		c-0.203,0-0.305,0.102-0.305,0.305c0,0.203,0.102,0.305,0.305,0.305h0.102C543.934,118.821,545.559,118.821,547.185,118.821z"/>
	<path fill="#FF7900" stroke="#FF7900" stroke-miterlimit="10" d="M547.185,114.961c-1.625,0-3.25,0-4.876,0
		c-0.203,0-0.305,0.102-0.406,0.203c0,0.203,0.102,0.406,0.305,0.406c0.102,0,0.102,0,0.203,0c3.149,0,6.399,0,9.548,0
		c0.102,0,0.102,0,0.203,0c0.203,0,0.305-0.203,0.305-0.305c0-0.203-0.102-0.305-0.305-0.305c-0.813,0-1.524,0-2.336,0
		C548.81,114.961,547.997,114.961,547.185,114.961z"/>
	<path fill="#FF7900" stroke="#FF7900" stroke-miterlimit="10" d="M547.185,122.071c1.625,0,3.149,0,4.774,0h0.102
		c0.203,0,0.305-0.102,0.305-0.305c0-0.203-0.102-0.305-0.305-0.305h-0.102c-3.25,0-6.399,0-9.65,0h-0.102
		c-0.203,0-0.305,0.203-0.305,0.305c0,0.203,0.102,0.305,0.305,0.305c0.305,0,0.609,0,0.914,0
		C544.544,122.071,545.864,122.071,547.185,122.071z"/>
</g>
<g>
	<path fill="#1C1A44" d="M400.409,326.237c0-0.203,0-0.406,0-0.609c0-9.548,0-19.198,0-28.746c0-3.25-1.828-5.993-4.672-7.11
		c-4.876-1.828-10.056,1.727-10.056,7.009c0,5.688,0,11.275,0,16.963c0,0.203,0,0.406,0,0.711c-0.203,0-0.406,0-0.609,0
		c-5.688,0-11.275,0-16.963,0c-3.149,0-5.485,2.031-5.993,5.079c-0.609,3.25,2.133,6.602,5.485,6.704c0.305,0,0.711,0,1.016,0
		c10.361,0,20.721,0,31.184,0C399.901,326.237,400.206,326.237,400.409,326.237z"/>
	<path fill="#1C1A44" d="M392.994,262.55c-6.501,0-11.783,5.282-11.783,11.783c0,6.501,5.383,11.884,11.884,11.783
		c6.602-0.102,11.783-5.383,11.783-11.884C404.776,267.832,399.494,262.55,392.994,262.55z"/>
	<path fill="#FF7900" d="M436.773,296.374c-0.102,30.879-25.089,55.765-55.968,55.663c-30.777-0.102-55.765-25.292-55.663-56.069
		c0.102-30.676,25.495-55.765,56.171-55.562C411.887,240.508,436.773,265.597,436.773,296.374z M429.256,296.273
		c0-26.613-21.635-48.451-48.147-48.451s-48.451,21.635-48.553,48.147c-0.102,26.714,21.635,48.553,48.35,48.553
		C407.519,344.521,429.256,322.987,429.256,296.273z"/>
	<path fill="#FF7900" d="M368.413,289.975c0.914,0.711,1.117,1.625,0.813,2.743c0,0.102,0,0.203,0.102,0.203
		c0.508,0.711,0.711,1.524,0.305,2.438c0,0.102,0,0.203,0,0.305c0.914,1.32,0.406,2.946-1.016,3.657
		c-2.438,1.117-4.774,2.336-7.212,3.454c-0.305,0.102-0.508,0.203-0.813,0.305c-2.133,0.508-4.266-0.508-5.18-2.539
		c-0.406-0.813-0.813-1.727-1.219-2.539c-0.305-0.711-0.711-1.422-1.016-2.235c-0.406-1.117-0.508-2.235-0.305-3.454
		c0.305-1.727,1.219-2.946,2.844-3.758c1.016-0.508,2.031-0.914,3.047-1.422c1.016-0.508,1.93-0.406,2.946,0
		c0.102,0.102,0.203,0.102,0.406,0c3.25-1.524,6.501-3.149,9.751-4.672c0.711-0.305,1.422-0.406,2.133-0.102
		c0.914,0.406,1.524,1.219,1.524,2.235s-0.406,1.828-1.32,2.336c-1.625,0.813-3.25,1.625-4.977,2.336
		C369.124,289.569,368.717,289.67,368.413,289.975C368.413,289.873,368.413,289.975,368.413,289.975z"/>
	<path fill="#FF7900" d="M380.5,310.29c-0.305,0-0.508,0-0.813,0c-7.618,0-15.338,0-22.956,0c-0.406,0-0.813-0.102-1.016-0.508
		c-3.961-6.806-7.923-13.611-11.884-20.417c0-0.102-0.102-0.203-0.203-0.406c0.813-0.406,1.625-0.914,2.438-1.32
		c0.203,0.305,0.305,0.508,0.406,0.711c3.555,6.196,7.212,12.291,10.767,18.487c0.305,0.508,0.711,0.813,1.32,0.813
		c7.009,0,14.017,0,21.026,0c0.305,0,0.609,0,1.016,0C380.5,308.563,380.5,309.376,380.5,310.29z"/>
</g>
</svg>
